<svg id="svg" version="1.1" xmlns="http://www.w3.org/2000/svg" xmlns:xlink="http://www.w3.org/1999/xlink" width="400" height="135.23375142531356" viewBox="0, 0, 400,135.23375142531356"><g id="svgg"><path id="path0" d="M19.833 64.583 L 19.833 115.333 74.833 115.333 L 129.833 115.333 129.833 113.333 L 129.833 111.333 76.833 111.333 L 23.833 111.333 23.833 64.667 L 23.833 18.000 202.167 18.000 L 380.500 18.000 380.500 64.667 L 380.500 111.333 324.917 111.333 L 269.333 111.333 269.333 113.333 L 269.333 115.333 326.917 115.333 L 384.500 115.333 384.500 64.583 L 384.500 13.833 202.167 13.833 L 19.833 13.833 19.833 64.583 M245.043 35.436 C 244.943 35.700,244.661 36.479,244.416 37.167 C 244.171 37.854,243.858 38.716,243.721 39.081 C 243.584 39.446,243.286 40.309,243.059 40.998 C 242.832 41.686,242.547 42.475,242.426 42.750 C 242.304 43.025,242.041 43.737,241.841 44.333 C 241.642 44.929,241.413 45.567,241.334 45.750 C 241.255 45.933,240.991 46.646,240.747 47.333 C 240.504 48.021,239.968 49.521,239.557 50.667 C 239.146 51.813,238.636 53.237,238.425 53.833 C 238.213 54.429,237.871 55.367,237.664 55.917 C 237.458 56.467,237.006 57.704,236.659 58.667 C 236.312 59.629,235.828 60.942,235.584 61.583 C 235.340 62.225,235.002 63.163,234.833 63.667 C 234.665 64.171,234.327 65.108,234.084 65.750 C 233.840 66.392,233.454 67.442,233.225 68.083 C 232.997 68.725,232.745 69.400,232.667 69.583 C 232.588 69.767,232.322 70.479,232.076 71.167 C 231.829 71.854,231.529 72.679,231.408 73.000 C 230.867 74.434,230.124 76.480,229.894 77.167 C 229.757 77.579,229.537 78.153,229.405 78.442 C 228.891 79.574,228.576 79.526,237.847 79.731 L 241.111 79.803 241.317 79.193 C 241.547 78.514,242.078 77.059,242.422 76.167 C 242.545 75.846,242.881 74.908,243.168 74.083 C 244.110 71.377,243.843 71.666,245.395 71.671 C 246.140 71.674,248.400 71.785,250.417 71.918 C 252.433 72.051,254.871 72.165,255.833 72.173 C 258.752 72.195,258.832 72.226,259.283 73.502 C 259.494 74.097,259.734 74.733,259.816 74.917 C 259.899 75.100,260.056 75.512,260.167 75.833 C 260.277 76.154,260.429 76.567,260.505 76.750 C 260.726 77.283,261.515 79.533,261.690 80.125 C 261.789 80.462,261.956 80.667,262.133 80.667 C 262.289 80.667,263.216 80.743,264.193 80.835 C 265.170 80.928,267.345 81.077,269.026 81.166 C 270.708 81.255,272.777 81.378,273.625 81.439 C 275.551 81.577,275.548 81.977,273.662 77.333 C 273.162 76.101,270.054 68.288,268.889 65.333 C 268.293 63.821,267.736 62.415,267.652 62.208 C 267.442 61.691,267.336 61.422,266.250 58.667 C 265.130 55.823,265.273 56.189,264.119 53.250 C 262.341 48.723,261.301 46.080,261.169 45.750 C 260.883 45.034,259.497 41.473,258.672 39.333 C 257.499 36.292,257.288 35.770,257.176 35.632 C 257.124 35.567,255.034 35.436,252.532 35.341 C 250.030 35.245,247.363 35.120,246.604 35.061 L 245.226 34.955 245.043 35.436 M293.000 38.085 C 288.260 38.991,283.343 42.008,281.830 44.940 C 281.695 45.202,281.539 45.454,281.484 45.500 C 281.103 45.817,279.922 48.548,279.286 50.583 C 277.752 55.493,278.168 64.074,280.197 69.333 C 283.199 77.116,288.978 81.819,297.917 83.756 C 302.147 84.673,308.306 84.502,311.925 83.368 C 312.654 83.140,314.710 82.136,314.970 81.882 C 315.091 81.764,315.250 81.667,315.323 81.667 C 315.395 81.667,315.709 81.437,316.019 81.157 C 316.329 80.877,316.754 80.529,316.962 80.385 C 318.013 79.659,320.556 75.499,321.070 73.667 C 321.371 72.592,321.830 70.732,321.831 70.578 C 321.832 70.483,321.477 70.306,321.042 70.183 C 320.606 70.060,319.725 69.790,319.083 69.583 C 318.442 69.377,317.354 69.042,316.667 68.839 C 315.224 68.414,314.705 68.258,313.667 67.938 C 313.254 67.812,312.354 67.542,311.667 67.339 C 310.979 67.135,310.244 66.901,310.034 66.818 C 309.441 66.584,309.410 66.610,309.181 67.542 C 307.966 72.483,306.036 74.387,302.250 74.382 C 296.012 74.374,292.279 69.805,291.483 61.209 C 290.567 51.297,295.387 45.912,302.664 48.718 C 304.700 49.503,308.000 53.709,308.000 55.518 C 308.000 56.375,308.177 56.392,311.250 55.833 C 311.754 55.742,312.579 55.592,313.083 55.500 C 313.587 55.408,314.431 55.255,314.958 55.159 C 315.485 55.064,316.292 54.916,316.750 54.832 C 317.208 54.747,318.116 54.593,318.767 54.489 C 320.494 54.213,320.464 54.262,319.931 52.640 C 319.457 51.197,318.039 48.125,317.802 48.028 C 317.728 47.997,317.667 47.894,317.667 47.798 C 317.667 47.639,316.999 46.644,316.219 45.639 C 314.154 42.980,310.323 40.365,307.000 39.347 C 306.313 39.136,305.568 38.892,305.345 38.805 C 303.202 37.966,295.863 37.538,293.000 38.085 M90.333 39.525 C 89.646 39.604,88.333 39.740,87.417 39.829 C 86.500 39.917,84.833 40.080,83.711 40.192 L 81.672 40.395 81.490 40.948 C 81.265 41.629,80.250 45.567,79.844 47.333 C 79.645 48.199,79.463 48.882,79.090 50.167 C 78.944 50.671,78.758 51.383,78.677 51.750 C 78.497 52.568,77.148 57.789,76.676 59.500 C 76.218 61.156,75.252 64.997,74.978 66.250 L 74.760 67.250 74.627 66.500 C 74.555 66.087,74.425 65.300,74.339 64.750 C 74.160 63.599,73.900 62.210,73.685 61.250 C 73.394 59.953,72.627 56.240,72.498 55.500 C 72.426 55.087,72.284 54.319,72.183 53.792 C 72.083 53.265,71.925 52.421,71.833 51.917 C 71.742 51.413,71.592 50.587,71.500 50.083 C 71.408 49.579,71.258 48.754,71.167 48.250 C 71.075 47.746,70.931 46.931,70.846 46.438 C 70.761 45.946,70.619 45.252,70.530 44.897 C 70.441 44.541,70.270 43.668,70.151 42.957 L 69.933 41.664 69.092 41.753 C 67.951 41.874,65.538 42.143,63.917 42.330 C 63.183 42.415,61.833 42.568,60.917 42.671 C 57.965 43.003,58.280 42.848,57.962 44.126 C 57.808 44.744,57.574 45.625,57.442 46.083 C 57.310 46.542,56.961 47.817,56.667 48.917 C 56.012 51.369,55.577 52.962,55.234 54.167 C 55.091 54.671,54.825 55.646,54.642 56.333 C 54.460 57.021,54.236 57.846,54.144 58.167 C 54.053 58.487,53.913 59.012,53.833 59.333 C 53.754 59.654,53.613 60.179,53.520 60.500 C 52.919 62.574,51.618 67.180,51.495 67.667 C 51.414 67.987,51.251 68.660,51.133 69.160 L 50.919 70.070 50.797 69.244 C 50.729 68.789,50.595 67.854,50.498 67.167 C 50.306 65.813,50.087 64.516,49.849 63.333 C 49.766 62.921,49.542 61.683,49.351 60.583 C 49.160 59.483,48.931 58.208,48.842 57.750 C 48.754 57.292,48.603 56.448,48.507 55.875 C 48.412 55.302,48.261 54.402,48.173 53.875 C 48.085 53.348,47.932 52.392,47.833 51.750 C 47.735 51.108,47.582 50.152,47.494 49.625 C 47.405 49.098,47.261 48.235,47.173 47.708 C 47.085 47.181,46.927 46.244,46.821 45.626 L 46.629 44.502 45.940 44.592 C 45.560 44.641,44.650 44.760,43.917 44.855 C 43.183 44.951,41.908 45.132,41.083 45.257 C 40.258 45.383,38.946 45.569,38.167 45.671 C 37.387 45.773,36.344 45.926,35.847 46.011 C 35.351 46.097,34.707 46.167,34.417 46.167 C 33.619 46.167,33.625 45.926,34.337 49.167 C 34.428 49.579,34.576 50.292,34.667 50.750 C 34.758 51.208,34.900 51.883,34.982 52.250 C 35.064 52.617,35.291 53.667,35.487 54.583 C 35.682 55.500,35.954 56.737,36.091 57.333 C 36.419 58.766,36.561 59.415,37.000 61.500 C 37.203 62.462,37.429 63.512,37.501 63.833 C 37.574 64.154,37.716 64.820,37.816 65.313 C 37.917 65.806,38.070 66.481,38.157 66.813 C 38.373 67.644,38.593 68.629,39.000 70.583 C 39.191 71.500,39.414 72.550,39.495 72.917 C 39.577 73.283,39.718 73.921,39.809 74.333 C 39.899 74.746,40.097 75.608,40.247 76.250 C 40.510 77.372,40.654 78.013,40.988 79.542 C 41.074 79.931,41.224 80.606,41.322 81.042 C 41.420 81.477,41.570 82.152,41.655 82.542 C 42.030 84.254,42.157 84.819,42.414 85.917 C 42.812 87.617,42.974 88.349,43.090 88.958 C 43.206 89.565,42.903 89.541,45.750 89.169 C 46.392 89.086,47.592 88.934,48.417 88.833 C 49.242 88.732,50.442 88.582,51.083 88.499 C 51.725 88.417,52.724 88.300,53.304 88.240 C 53.883 88.180,54.384 88.045,54.417 87.941 C 54.450 87.836,54.639 87.188,54.837 86.500 C 55.036 85.813,55.299 84.987,55.423 84.667 C 55.546 84.346,55.809 83.521,56.007 82.833 C 56.206 82.146,56.430 81.396,56.506 81.167 C 56.582 80.938,56.809 80.188,57.012 79.500 C 57.214 78.813,57.558 77.688,57.776 77.000 C 57.994 76.313,58.240 75.525,58.322 75.250 C 58.898 73.323,59.591 71.073,59.913 70.083 C 60.122 69.442,60.452 68.373,60.646 67.708 C 61.400 65.135,61.734 64.033,62.176 62.667 C 62.428 61.887,62.724 60.916,62.833 60.507 C 63.074 59.604,63.258 59.820,63.487 61.278 C 63.926 64.069,64.011 64.549,64.083 64.667 C 64.127 64.737,64.235 65.272,64.323 65.856 C 64.411 66.439,64.566 67.367,64.667 67.917 C 64.768 68.467,64.917 69.329,65.000 69.833 C 65.083 70.337,65.225 71.162,65.318 71.667 C 65.410 72.171,65.632 73.446,65.812 74.500 C 65.992 75.554,66.215 76.754,66.308 77.167 C 66.401 77.579,66.557 78.385,66.655 78.958 C 67.061 81.335,67.199 82.121,67.333 82.833 C 67.411 83.246,67.561 84.071,67.666 84.667 C 68.030 86.722,67.930 86.554,68.710 86.429 C 69.092 86.368,70.120 86.244,70.994 86.154 C 71.868 86.063,73.277 85.917,74.125 85.828 C 74.973 85.739,76.385 85.598,77.263 85.514 C 78.142 85.431,78.880 85.337,78.905 85.306 C 78.982 85.211,79.773 82.837,80.341 81.000 C 80.638 80.037,81.197 78.275,81.582 77.083 C 81.968 75.892,82.456 74.354,82.667 73.667 C 82.878 72.979,83.294 71.667,83.592 70.750 C 83.889 69.833,84.376 68.296,84.673 67.333 C 84.970 66.371,85.458 64.833,85.759 63.917 C 86.225 62.493,86.755 60.779,87.536 58.167 C 87.632 57.846,87.809 57.321,87.929 57.000 C 88.050 56.679,88.384 55.629,88.672 54.667 C 89.435 52.115,89.447 52.076,90.068 50.167 C 90.382 49.204,90.876 47.629,91.166 46.667 C 91.457 45.704,91.869 44.392,92.081 43.750 C 92.293 43.108,92.672 41.908,92.923 41.083 C 93.173 40.258,93.410 39.527,93.449 39.458 C 93.537 39.302,91.985 39.336,90.333 39.525 M330.665 43.208 C 330.664 43.965,330.738 45.671,330.829 47.000 C 330.920 48.329,331.073 50.879,331.169 52.667 C 331.264 54.454,331.450 57.679,331.583 59.833 C 331.822 63.732,332.005 66.976,332.336 73.167 C 332.431 74.954,332.580 77.654,332.667 79.167 C 332.753 80.679,332.870 82.883,332.926 84.065 C 333.053 86.740,333.002 86.626,334.139 86.744 C 336.659 87.006,338.402 87.207,340.000 87.418 C 340.962 87.545,342.425 87.730,343.250 87.829 C 344.075 87.929,345.331 88.081,346.042 88.168 C 346.753 88.256,347.971 88.405,348.750 88.500 C 350.418 88.704,352.397 88.949,354.250 89.181 C 354.983 89.273,356.258 89.452,357.083 89.579 C 357.908 89.706,359.258 89.895,360.083 89.999 C 360.908 90.104,362.033 90.254,362.583 90.333 C 363.133 90.413,364.258 90.564,365.083 90.670 C 365.908 90.776,366.951 90.932,367.399 91.018 C 368.435 91.215,368.358 91.487,368.162 88.320 C 368.069 86.815,367.953 84.833,367.905 83.917 C 367.743 80.846,368.200 81.186,363.333 80.512 C 360.701 80.148,359.704 80.013,358.333 79.838 C 357.554 79.738,356.392 79.586,355.750 79.500 C 355.108 79.414,353.946 79.263,353.167 79.165 C 351.826 78.996,350.261 78.783,346.982 78.322 L 345.547 78.120 345.439 75.768 C 345.380 74.475,345.285 72.699,345.228 71.822 L 345.124 70.228 346.271 70.358 C 347.775 70.529,349.945 70.793,351.500 70.995 C 353.233 71.219,355.366 71.493,356.750 71.669 C 357.392 71.750,358.321 71.896,358.814 71.992 C 359.308 72.088,359.777 72.167,359.856 72.167 C 360.068 72.167,360.026 70.400,359.751 67.750 C 359.619 66.467,359.508 64.842,359.505 64.139 C 359.498 62.465,359.438 62.333,358.677 62.333 C 358.335 62.333,357.649 62.263,357.153 62.176 C 356.656 62.090,355.575 61.936,354.750 61.834 C 349.329 61.167,344.623 60.512,344.522 60.410 C 344.486 60.375,344.395 59.087,344.318 57.548 C 344.242 56.009,344.131 54.462,344.072 54.111 L 343.966 53.472 344.941 53.575 C 346.263 53.715,348.258 53.972,350.167 54.248 C 351.037 54.374,352.425 54.560,353.250 54.663 C 354.075 54.765,355.238 54.916,355.833 54.998 C 356.429 55.081,357.554 55.231,358.333 55.333 C 360.521 55.620,361.794 55.796,363.290 56.020 C 364.997 56.276,364.862 56.541,364.664 53.320 C 364.516 50.926,364.194 46.145,364.174 46.049 C 364.165 46.007,363.497 45.904,361.667 45.662 C 360.887 45.560,359.613 45.374,358.833 45.250 C 357.496 45.037,356.742 44.934,353.333 44.500 C 352.554 44.401,351.317 44.243,350.583 44.150 C 347.882 43.805,346.883 43.680,345.417 43.500 C 344.592 43.399,343.129 43.211,342.167 43.083 C 340.213 42.824,338.396 42.605,335.917 42.332 C 335.000 42.231,333.748 42.078,333.135 41.991 C 332.521 41.904,331.715 41.833,331.343 41.833 L 330.667 41.833 330.665 43.208 M251.662 52.542 C 251.885 53.206,252.123 53.862,252.192 54.000 C 252.261 54.137,252.480 54.737,252.678 55.333 C 252.876 55.929,253.135 56.642,253.253 56.917 C 253.371 57.192,253.778 58.279,254.159 59.333 C 254.539 60.387,255.044 61.722,255.280 62.298 C 255.823 63.623,255.975 63.554,252.974 63.352 C 251.567 63.257,249.643 63.131,248.698 63.071 C 247.193 62.976,246.993 62.928,247.093 62.690 C 247.287 62.228,248.803 57.918,249.960 54.542 C 250.564 52.777,251.103 51.333,251.158 51.333 C 251.213 51.333,251.440 51.877,251.662 52.542 " stroke="none" fill="#244494" fill-rule="evenodd"></path><path id="path1" d="M190.778 34.444 C 190.717 34.506,190.667 44.593,190.667 56.861 L 190.667 79.167 199.375 79.167 C 204.165 79.167,211.627 79.217,215.958 79.277 L 223.833 79.388 223.833 74.469 L 223.833 69.550 222.208 69.445 C 221.315 69.388,216.777 69.289,212.125 69.227 L 203.667 69.113 203.667 51.723 L 203.667 34.333 197.278 34.333 C 193.764 34.333,190.839 34.383,190.778 34.444 M158.583 35.106 C 158.400 35.140,156.243 35.230,153.790 35.307 C 151.337 35.384,149.304 35.478,149.272 35.515 C 149.241 35.553,149.092 40.233,148.941 45.917 C 148.699 55.089,148.576 60.429,148.247 76.145 L 148.159 80.372 148.871 80.266 C 149.997 80.098,165.221 79.605,175.767 79.395 L 181.450 79.282 181.544 74.349 C 181.596 71.636,181.622 69.400,181.602 69.380 C 181.533 69.311,165.594 69.655,163.551 69.770 L 161.520 69.884 161.596 63.817 C 161.695 55.949,161.972 41.922,162.104 38.042 L 162.207 35.000 160.562 35.023 C 159.657 35.035,158.767 35.073,158.583 35.106 M122.167 36.773 C 120.706 36.845,116.270 37.161,113.994 37.356 L 111.905 37.535 110.609 40.809 C 109.896 42.610,109.205 44.320,109.073 44.609 C 108.941 44.897,108.833 45.186,108.833 45.250 C 108.833 45.314,108.730 45.603,108.603 45.891 C 108.476 46.180,107.867 47.692,107.249 49.250 C 106.631 50.808,106.030 52.308,105.913 52.583 C 105.797 52.858,105.534 53.496,105.331 54.000 C 105.127 54.504,104.819 55.235,104.647 55.623 C 104.474 56.012,104.333 56.407,104.333 56.500 C 104.333 56.594,104.264 56.801,104.179 56.961 C 104.094 57.120,102.472 61.112,100.575 65.833 C 98.679 70.554,96.962 74.792,96.760 75.250 C 95.853 77.313,93.279 83.834,93.345 83.901 C 93.386 83.941,94.018 83.909,94.751 83.828 C 95.484 83.748,97.096 83.601,98.333 83.503 C 102.625 83.161,105.229 82.835,105.363 82.623 C 105.434 82.510,105.877 81.442,106.345 80.250 C 107.329 77.751,107.372 77.642,107.744 76.750 C 107.897 76.383,108.085 75.933,108.161 75.750 C 108.237 75.567,108.391 75.173,108.503 74.875 C 108.693 74.372,108.762 74.333,109.479 74.332 C 109.903 74.331,110.888 74.255,111.667 74.162 C 112.446 74.069,114.208 73.920,115.583 73.832 C 123.018 73.355,123.402 73.341,123.529 73.547 C 123.598 73.659,123.854 74.387,124.097 75.166 C 124.341 75.946,124.709 77.071,124.916 77.667 C 125.123 78.262,125.481 79.350,125.713 80.083 C 126.114 81.351,126.158 81.416,126.609 81.395 C 129.611 81.256,134.575 80.952,135.831 80.830 C 136.703 80.745,137.848 80.673,138.375 80.671 C 139.523 80.666,139.509 80.747,138.731 78.583 C 138.401 77.667,137.813 76.017,137.423 74.917 C 137.033 73.817,136.508 72.354,136.256 71.667 C 136.005 70.979,135.441 69.404,135.005 68.167 C 134.568 66.929,134.085 65.579,133.932 65.167 C 133.779 64.754,133.436 63.779,133.170 63.000 C 132.904 62.221,132.416 60.833,132.087 59.917 C 131.757 59.000,131.199 57.425,130.846 56.417 C 130.494 55.408,130.003 54.021,129.755 53.333 C 129.508 52.646,129.242 51.896,129.164 51.667 C 129.087 51.438,128.604 50.050,128.090 48.583 C 127.577 47.117,126.863 45.054,126.504 44.000 C 126.144 42.946,125.654 41.558,125.415 40.917 C 125.175 40.275,124.751 39.056,124.471 38.208 C 123.993 36.761,123.935 36.669,123.523 36.697 C 123.281 36.714,122.671 36.749,122.167 36.773 M117.249 53.708 C 117.367 54.134,119.227 59.948,120.169 62.833 L 120.794 64.750 119.272 64.857 C 114.155 65.217,112.279 65.334,112.241 65.295 C 112.206 65.258,112.890 63.421,113.498 61.917 C 113.573 61.733,113.987 60.683,114.419 59.583 C 114.850 58.483,115.263 57.433,115.335 57.250 C 116.951 53.136,117.042 52.967,117.249 53.708 M146.583 99.113 C 145.228 99.339,141.500 101.719,141.500 102.359 C 141.500 102.556,143.511 104.487,143.724 104.495 C 143.802 104.498,144.205 104.201,144.620 103.836 C 147.707 101.118,151.997 102.063,151.999 105.460 C 152.001 107.366,150.599 109.158,146.167 112.919 C 145.204 113.736,144.379 114.445,144.333 114.494 C 144.287 114.543,143.744 115.021,143.125 115.556 L 142.000 116.528 142.000 118.014 L 142.000 119.500 149.333 119.500 L 156.667 119.500 156.667 117.919 L 156.667 116.339 151.971 116.294 L 147.275 116.250 148.846 114.979 C 154.744 110.207,155.995 108.504,155.995 105.250 C 155.995 100.780,152.042 98.202,146.583 99.113 M181.000 99.147 C 178.251 99.758,176.579 101.801,175.663 105.667 C 175.380 106.864,175.369 112.158,175.649 113.270 C 176.101 115.072,176.213 115.424,176.596 116.262 C 177.111 117.387,178.441 118.839,179.361 119.279 C 180.753 119.945,181.031 120.000,183.000 120.000 C 184.965 120.000,185.248 119.944,186.626 119.285 C 190.577 117.397,192.060 108.410,189.368 102.667 C 188.055 99.867,184.494 98.369,181.000 99.147 M214.417 99.110 C 213.107 99.316,209.333 101.749,209.333 102.387 C 209.333 102.561,211.399 104.493,211.583 104.492 C 211.675 104.491,212.088 104.190,212.500 103.822 C 214.819 101.754,218.213 101.761,219.478 103.836 C 220.756 105.932,219.179 108.624,214.290 112.695 C 213.703 113.184,212.460 114.244,211.528 115.051 L 209.833 116.518 209.833 118.092 L 209.833 119.667 217.167 119.667 L 224.500 119.667 224.500 118.003 L 224.500 116.339 219.792 116.294 L 215.083 116.250 216.167 115.424 C 216.763 114.970,217.287 114.556,217.333 114.504 C 217.379 114.452,217.867 114.037,218.417 113.581 C 222.509 110.194,223.829 108.162,223.828 105.250 C 223.828 100.771,219.948 98.239,214.417 99.110 M248.833 99.147 C 245.099 99.978,243.281 103.395,243.281 109.583 C 243.281 115.503,244.882 118.653,248.483 119.817 C 249.225 120.057,252.685 120.053,253.284 119.812 C 256.963 118.331,258.488 115.313,258.497 109.500 C 258.501 106.269,257.855 103.364,256.808 101.917 C 255.093 99.545,251.950 98.453,248.833 99.147 M184.696 102.709 C 187.278 104.287,187.638 113.777,185.201 116.037 C 183.779 117.355,181.341 117.031,180.319 115.389 C 178.866 113.056,178.908 105.837,180.387 103.641 C 181.289 102.304,183.315 101.865,184.696 102.709 M252.586 102.719 C 255.121 104.442,255.436 113.810,253.034 116.037 C 251.703 117.271,249.224 117.002,248.241 115.516 C 246.708 113.200,246.696 105.904,248.220 103.641 C 249.127 102.296,251.290 101.839,252.586 102.719 " stroke="none" fill="#ec2324" fill-rule="evenodd"></path></g></svg>